<?xml version="1.0" encoding="UTF-8"?><svg width="150px" height="6px" viewBox="0 0 150 6" version="1.1" xmlns="http://www.w3.org/2000/svg" xmlns:xlink="http://www.w3.org/1999/xlink"><g id="Homepage" stroke="none" stroke-width="1" fill="none" fill-rule="evenodd"><g id="beau" transform="translate(-1195.000000, -72.000000)" stroke="#7C8DD8" stroke-width="1.5"><g id="Group" transform="translate(1270.000000, 74.500000) scale(1, -1) translate(-1270.000000, -74.500000) translate(1195.000000, 72.000000)"><path d="M67.5,4.21875 C70.3125,4.21875 71.71875,3.37507799e-14 75,3.37507799e-14 C78.28125,3.37507799e-14 78.75,4.21875 82.5,4.21875 C86.25,4.21875 87.1875,3.37507799e-14 90,3.37507799e-14" id="Path"></path><path d="M22.5,4.21875 C25.3125,4.21875 26.71875,3.37507799e-14 30,3.37507799e-14 C33.28125,3.37507799e-14 33.75,4.21875 37.5,4.21875 C41.25,4.21875 42.1875,3.37507799e-14 45,3.37507799e-14" id="Path-Copy-2"></path><path d="M45,4.21875 C47.8125,4.21875 49.21875,3.37507799e-14 52.5,3.37507799e-14 C55.78125,3.37507799e-14 56.25,4.21875 60,4.21875 C63.75,4.21875 64.6875,3.37507799e-14 67.5,3.37507799e-14" id="Path-Copy" transform="translate(56.250000, 2.109375) scale(1, -1) translate(-56.250000, -2.109375) "></path><path d="M-3.55271368e-15,4.21875 C2.8125,4.21875 4.21875,3.37507799e-14 7.5,3.37507799e-14 C10.78125,3.37507799e-14 11.25,4.21875 15,4.21875 C18.75,4.21875 19.6875,3.37507799e-14 22.5,3.37507799e-14" id="Path-Copy-3" transform="translate(11.250000, 2.109375) scale(1, -1) translate(-11.250000, -2.109375) "></path><path d="M112.5,4.21875 C115.3125,4.21875 116.71875,2.08721929e-14 120,2.08721929e-14 C123.28125,2.08721929e-14 123.75,4.21875 127.5,4.21875 C131.25,4.21875 132.1875,2.08721929e-14 135,2.08721929e-14" id="Path-Copy-6"></path><path d="M135,4.21875 C137.8125,4.21875 139.21875,2.04281037e-14 142.5,2.04281037e-14 C145.78125,2.04281037e-14 146.25,4.21875 150,4.21875" id="Path-Copy-5" transform="translate(142.500000, 2.109375) scale(1, -1) translate(-142.500000, -2.109375) "></path><path d="M90,4.21875 C92.8125,4.21875 94.21875,2.08721929e-14 97.5,2.08721929e-14 C100.78125,2.08721929e-14 101.25,4.21875 105,4.21875 C108.75,4.21875 109.6875,2.08721929e-14 112.5,2.08721929e-14" id="Path-Copy-4" transform="translate(101.250000, 2.109375) scale(1, -1) translate(-101.250000, -2.109375) "></path></g></g></g></svg>